Patient4_TMGait_0pt6_02_right_20_EMG.mot
version=1
nRows=36
nColumns=33
inDegrees=no
endheader
time	1LAddLong	2LGlutMax	3LGlutMed	4LIliopsoas	5LSemiMemb	6LBicFemLong	7LRecFem	8LVastMed	9LVastLat	10LGasMed	11LTibAnt	12lTibPost	13LPeroneusLong	14LSol	15LExtDigLong	16LFlexDigLong	17RAddLong	18RGlutMax	19RGlutMed	20RIliopsoas	21RSemiMemb	22RBicFemLong	23RRecFem	24RVastMed	25RVastLat	26RGasMed	27RTibAnt	28RTibPost	29RPeroneusLong	30RSol	31RExtDigLong	32RFlexDigLong
23.94	-0.00061	-0.065002	-0.023956	0.000916	-0.085602	-0.003662	0.095978	-0.007477	0.056915	-0.059967	0.090332	0.010223	-0.031586	0.19119	0.050812	0.019684	-0.027618	-0.11154	0.09552	0.040894	-0.010834	-0.030975	0.023804	-0.20828	0.003052	0.001526	0.18387	-0.003052	-0.087738	0.10132	-0.004272	-0.005798
23.941	0.006409	-0.076141	-0.029755	-0.01358	0.02182	-0.034485	0.097504	-0.001373	0.029755	-0.040588	-0.089111	0.005341	-0.08255	0.17425	0.075226	0.00885	-0.033264	-0.1236	0.098877	0.057831	-0.003815	-0.011597	-0.13596	-0.14664	-0.005493	0.001068	0.29159	-0.001373	0.013428	0.018616	-0.005341	-0.000305
23.942	0.000763	-0.092621	-0.04364	0.011902	0.042267	-0.064087	0.10223	-0.001984	0.02594	-0.074768	0.007172	0.022736	-0.027313	0.15213	0.084686	0.000305	-0.063324	-0.12253	0.29694	-0.06073	-0.010834	-0.004883	-0.042572	0.006104	-0.022888	0.002594	0.39063	-0.000763	0.23086	-0.087738	-0.006714	0.001984
23.943	-0.00946	-0.083313	-0.066833	0.009918	0.060577	-0.038757	0.13275	0.00473	0.014648	-0.11688	-0.041046	0.025787	0.036163	0.17761	0.095367	0.010071	-0.065918	-0.11017	0.2449	-0.10773	-0.020294	-0.009613	-0.16464	0.001221	-0.024261	0.002594	0.81986	0.00473	0.19623	-0.11398	-0.007019	0.001221
23.944	-0.026398	-0.080414	-0.13229	0.01358	0.00885	0.035095	0.19241	0.001831	-0.00412	-0.16098	0.098724	0.014496	0.14786	0.062256	-0.43594	0.021515	-0.065002	-0.13229	0.21088	-0.12146	-0.007782	-0.002441	-0.18112	-0.006256	-0.036621	-0.005188	0.53482	-0.003967	-0.030212	-0.044708	-0.006104	-0.000153
23.945	-0.024414	-0.08255	-0.14526	0.00061	-0.015259	0.050659	0.20172	-0.005493	-0.006714	-0.1207	0.080414	0.02533	0.18372	-0.16907	-0.2919	-0.013428	-0.05661	-0.098724	0.19531	-0.071411	-0.022583	0.013733	-0.22705	-0.023041	-0.025787	-0.008545	-0.032654	-0.002594	-0.19165	0.02243	-0.004578	-0.012665
23.946	-0.00946	-0.094147	-0.004883	-0.018463	-0.064545	0.016479	0.19669	-0.003815	-0.025024	-0.043335	-0.068512	0.005951	0.14984	-0.45212	-0.37415	-0.008698	-0.016785	-0.12741	0.35172	-0.16937	-0.006866	0.033417	-0.14328	-0.063171	0.00061	-0.010376	-0.23224	-0.006409	-0.13962	-0.11871	-0.00473	-0.006104
23.947	-0.010223	-0.10407	0.047455	-0.007629	-0.086365	-0.010071	0.19424	-0.005493	-0.012512	0.006561	-0.16876	0.023651	0.079803	-0.38757	-0.60364	-0.003357	0.028229	-0.04837	0.30945	-0.062103	-0.001221	0.030518	0.19302	-0.017548	0.02182	-0.01297	-0.41016	0.005493	0.038605	-0.073547	-0.0177	-0.011902
23.948	0.009003	-0.1062	0.009308	0.009155	-0.098419	-0.050201	0.20325	-0.001831	-0.042419	-0.021973	-0.24307	0.015411	0.053101	-0.23865	-0.70252	-0.009918	0.039673	-0.076599	0.025787	0.17334	-0.00473	0.050659	0.20401	-0.04837	-0.001831	-0.014496	-0.27313	-0.002441	0.039825	0.076141	-0.009918	-0.048218
23.949	0.019684	-0.14328	-0.000763	0.010376	-0.014496	-0.084076	0.17227	0.011139	-0.081024	-0.04303	-0.16388	0.025787	0.044708	-0.16098	-0.38727	-0.007019	0.039825	-0.098724	-0.052643	0.15243	-0.008087	0.03418	-0.007629	-0.10544	-0.022583	-0.001678	-0.16129	-0.002594	-0.040588	0.11704	-0.007629	-0.045319
23.95	0.025635	-0.1535	-0.066223	0.036621	0.10437	-0.056763	0.16602	0.016785	-0.053406	-0.093231	-0.02243	0.014648	0.039215	-0.18723	-0.03952	-0.003662	0.036926	-0.063171	0.059967	0.19241	-0.003357	-0.00061	-0.32913	-0.15839	0.011444	-0.003967	-0.11841	-0.002136	0.016785	0.083618	-0.006714	-0.048981
23.951	0.026703	-0.15549	-0.10742	0.017395	0.063477	-0.017242	0.1358	0.00885	0.014954	-0.061188	-0.009308	0.011597	0.017853	-0.22903	0.18646	0.002747	0.097046	-0.037537	0.15442	0.15518	-0.016785	-0.018158	-0.39597	-0.1976	0.005341	-0.003357	-0.12634	0.007172	0.059662	0.06073	-0.002136	-0.037994
23.952	0.013885	-0.11704	-0.11261	0.01297	0.022583	0.053406	0.058594	0.01297	0.058136	-0.017548	0.027008	-0.004883	-0.031586	-0.25162	0.39932	-1.1411	0.10971	-0.1178	-0.037384	0.19516	-0.02182	-0.00946	-0.29511	-0.10925	-0.001831	-0.007019	-0.087433	-0.002594	0.046692	0.04715	-0.002136	-0.036469
23.953	0.005035	-0.13016	-0.14114	0.012207	0.00351	0.086517	-0.063934	0.016174	0.047455	0.019531	0.015869	0.008392	-0.035858	-0.20752	0.44662	0.081024	0.091858	-0.085907	0.17975	0.074768	-0.032349	-0.012817	-0.27069	-0.036469	-0.002441	-0.006104	-0.032043	-0.003204	0.059662	0.037231	-0.003815	-0.0354
23.954	0.00946	-0.14816	-0.12894	-0.003967	-0.001068	0.043182	-0.15793	0.002289	0.14099	0.007477	0.010681	-0.009155	-0.010071	-0.19333	0.33615	0.91354	0.02594	-0.096436	0.26871	-0.028687	-0.028381	0.014954	-0.27863	0.028992	0.00824	-0.00061	0.062256	-0.001831	0.10956	0.035248	-0.002441	-0.029907
23.955	-0.004272	-0.10498	0.00946	0.010071	-0.002289	0.027924	0.001526	-0.014648	0.090637	0.027008	-0.015106	-0.004883	-0.017242	-0.17029	0.2739	-0.4335	-0.000153	-0.10757	0.44464	-0.0177	-0.022125	0.013733	-0.020599	0.075378	-0.001984	-0.014038	0.14603	-0.006104	-0.025024	0.053558	-0.004578	-0.029297
23.956	-0.01358	-0.12375	0.14069	-0.008392	-0.014343	0.043182	0.17349	-0.014343	0.23193	0.050659	-0.005493	-0.008392	-0.037079	-0.17029	0.28549	-0.11734	-0.001221	-0.074158	0.39948	0.094757	-0.033264	0.015411	0.12741	0.15823	0.00824	-0.01709	0.055237	-0.003357	-0.074615	0.032043	0.001068	-0.028687
23.957	-0.019531	-0.10925	0.096741	0.009155	-0.017395	0.042572	0.19608	-0.014343	0.24139	0.054779	-0.015717	-0.003967	-0.054626	-0.15335	0.30319	0.58319	0.007629	-0.068207	0.22614	0.15015	-0.021057	0.013885	0.20309	0.20966	0.014648	-0.014038	0.092468	-0.003052	0.005341	0.001068	-0.004578	-0.035248
23.958	-0.012207	-0.080872	0.038757	-0.010223	-0.012665	0.03006	0.12955	0.012054	0.15472	0.080261	-0.018768	-0.010071	-0.064545	-0.097504	0.37888	0.10483	0.00824	-0.040436	0.22415	0.10468	-0.026398	0.043182	0.19745	0.1857	0.005341	-0.010986	0.23392	-0.002594	0.01358	0.005646	-0.001678	-0.019684
23.959	-0.012207	-0.11292	0.093994	-0.016174	-0.027313	0.012054	0.030823	0.033417	0.095825	0.060883	0.03418	-0.009613	-0.028534	-0.050659	0.35416	-0.003662	-0.022125	-0.089264	0.046387	-0.053253	-0.019226	0.047913	0.12131	0.11398	0.031128	-0.011597	0.28122	-0.007172	-0.18936	-0.03418	0.000305	-0.019379
23.96	-0.011139	-0.093231	0.062561	0.004883	-0.019836	0.025787	-0.074921	0.03479	0.14755	0.048065	0.022278	-0.011597	0.059814	0.023956	-0.018921	0.009003	-0.066833	-0.085144	-0.013428	-0.082245	-0.000305	0.05661	0.12482	0.098877	0.016785	-0.002899	0.22705	-0.003052	-0.59021	-0.060577	-0.003967	-0.01709
23.961	-0.006409	-0.1033	0.048065	0.019989	-0.018616	0.078888	-0.12283	0.023041	0.20615	0.031281	0.026398	-0.014343	0.090332	0.08255	-0.10559	-0.034332	-0.072021	-0.095978	0.10269	0.074158	0.005035	0.048218	0.10269	0.11429	0.012817	0	0.18829	-0.005798	-0.60318	-0.059204	-0.004425	-0.018158
23.962	-0.013733	-0.12192	0.046387	0.007172	-0.037994	0.097504	-0.070343	-0.01236	-0.1889	0.019379	0.10223	-0.017548	0.093842	0.087128	-0.005035	-0.008545	-0.052338	-0.103	0.25955	0.13321	0.005188	0.066986	0.059204	0.028076	0.000305	0.002441	0.10696	-0.002594	-0.021667	-0.029907	-0.001526	-0.014038
23.963	-0.023193	-0.076599	0.031281	0.015717	-0.046692	0.063324	0.06012	-0.029755	-0.13473	0.013123	0.12619	-0.012207	-0.005341	0.10513	0.7161	-0.014343	-0.025482	-0.10468	0.1236	0.16617	-0.007019	0.078125	0.13718	0.020447	0.023193	0.000153	0.032196	-0.004425	0.40466	-0.064697	-0.00061	-0.006104
23.964	-0.028381	-0.10757	0.00946	0.009308	-0.070953	0.05188	0.11414	-0.040588	-0.13321	0.011444	0.20294	-0.017242	-0.063019	0.076752	0.3212	-0.01709	-0.034637	-0.1152	0.26566	0.0737	-0.004883	0.077209	0.1207	-0.040283	0.00946	-0.002899	0.042114	-0.005798	0.47318	-0.09491	-0.001984	-0.017395
23.965	-0.00824	-0.098724	0.009766	0.022888	-0.009308	0.024261	0.088806	-0.028534	-0.075226	0.002441	0.22095	-0.02533	-0.13382	0.045013	-0.35904	-0.007019	-0.039673	-0.095825	0.29999	-0.011444	-0.016022	0.062103	0.064087	-0.1152	0.017395	-0.010681	0.02655	-0.001984	0.18402	0.023956	-0.007324	-0.015259
23.966	0.005493	-0.0914	-0.020599	0.006866	0.022278	0.002136	0.090637	-0.012512	-0.059052	-0.004578	0.022888	-0.015411	-0.11581	0.094604	-0.10834	-0.00824	-0.040741	-0.16419	0.01236	-0.088348	-0.012054	0.079651	0.033417	-0.13657	0.010986	-0.01236	-0.075836	-0.002899	-0.040894	0.0354	-0.003204	-0.005341
23.967	0.011292	-0.079651	-0.02121	0.00061	-0.005493	-0.11993	0.050201	-0.004883	-0.044403	-0.014496	-0.10986	-0.016022	-0.052948	0.14664	-0.39597	-0.021667	-0.027466	-0.1355	-0.018158	-0.081482	-0.004272	0.075836	0.044708	-0.20203	0.027771	-0.010376	0.04364	-0.002747	-0.29984	-0.008392	0.001984	0.001221
23.968	0.014648	-0.08667	0.014038	0.001221	-0.000153	-0.22156	0.056763	-0.009918	-0.010071	-0.036469	-0.1355	-0.011749	-0.019531	0.17502	-0.56366	-0.016785	-0.030518	-0.10559	-0.25223	-0.066223	0.003662	0.076599	0.037231	-0.1973	0.030975	-0.002594	0.2298	-0.007629	0.35736	-0.024261	-0.004425	0.001526
23.969	0.016022	-0.083923	0.044098	0.007629	0.000916	-0.2066	0.058136	-0.005646	-0.004272	-0.01709	-0.1413	-0.017853	-0.039063	0.064087	-0.55588	-0.03006	-0.026855	-0.13153	-0.2623	-0.12054	0.000458	0.075378	-0.00473	-0.24124	0.029755	-0.005493	0.090332	-0.006256	0.72723	0.004578	0.004425	-0.00412
23.97	0.005341	-0.088959	-0.034027	0.005035	-0.049133	-0.12665	0.055847	-0.005341	-0.004425	0.021667	-0.06424	-0.013733	-0.10346	-0.15137	-0.58105	-0.018311	-0.010986	-0.13886	-0.11063	-0.18066	-0.000153	0.058441	0.10376	-0.2742	0.024719	-0.015106	-0.06424	-0.002899	0.33218	0.038452	0.000916	-0.007629
23.971	0.004272	-0.071564	-0.011444	-0.001068	-0.088501	0.007477	0.10193	-0.003204	0.01297	0.010834	-0.036316	-0.010376	-0.07782	-0.23727	-0.3775	-0.015106	-0.006256	-0.1648	-0.16541	-0.22629	-0.007172	0.035248	0.1889	-0.20584	0.027618	-0.015564	0.20554	-0.003815	0.22644	-0.014648	-0.003052	-0.005951
23.972	0.010223	-0.076599	-0.022125	0.016937	-0.079803	0.050354	0.083008	0.000153	-0.011902	-0.022278	-0.034332	-0.014038	0.057831	-0.22247	-0.13214	-0.008392	-0.023651	-0.098572	-0.10986	-0.16159	-0.012817	0.029755	0.22797	-0.22461	0.012512	-0.011139	0.48966	-0.004272	0.45227	-0.042419	-0.001526	-0.006104
23.973	0.016327	-0.052795	-0.074158	0.002136	-0.016632	0.013885	0.096436	0.003204	0.003204	-0.013123	-0.008545	-0.017548	0.011749	-0.15518	0.065918	-0.017242	-0.029602	-0.11292	-0.13001	-0.16205	-0.02655	0.034485	0.20233	-0.1857	0.016022	-0.008698	0.92224	-0.005188	0.46097	-0.10361	-0.003204	-0.000458
23.974	0.018005	-0.06424	-0.038605	0.007782	0.055542	0.074005	0.10544	0.001373	0.001526	-0.063171	0.000458	-0.009766	0.003662	-0.10651	0.1033	0.019226	-0.005798	-0.081329	-0.20721	-0.13733	-0.023956	-0.011444	0.12085	-0.11597	-0.008698	-0.002441	0.94528	-0.005035	-0.16312	-0.14465	-0.001678	-0.003662
23.975	0.017242	-0.043488	0.069885	0.009308	0.008392	0.042419	0.10086	-0.002747	0.011444	-0.077972	-0.004425	-0.009003	-0.018158	-0.047302	0.12131	0.058441	0.001831	-0.095367	-0.058441	-0.1622	-0.038757	-0.020294	-0.10757	-0.028076	-0.010223	0.007324	0.081329	-0.000916	-0.31372	-0.17517	-0.006561	0.000458
